<?xml version="1.0" encoding="utf-8"?>
<!-- Generator: Adobe Illustrator 15.1.0, SVG Export Plug-In . SVG Version: 6.00 Build 0)  -->
<!DOCTYPE svg PUBLIC "-//W3C//DTD SVG 1.1//EN" "http://www.w3.org/Graphics/SVG/1.1/DTD/svg11.dtd">
<svg version="1.1" xmlns="http://www.w3.org/2000/svg" xmlns:xlink="http://www.w3.org/1999/xlink" x="0px" y="0px" width="72px"
	 height="72px" viewBox="0 0 72 72" enable-background="new 0 0 72 72" xml:space="preserve">
<g id="Layer_2" display="none">
	<path display="inline" d="M51.103,3.48c0.918,0,1.611,0.645,2.08,1.934v0.762c0,0.898-0.615,1.611-1.846,2.139l-1.143,4.863
		c2.5,0.605,4.521,1.748,6.064,3.428c1.27,1.446,2.158,3.233,2.666,5.361h0.088l4.014-1.641V20.18
		c0.234-1.582,1.006-2.373,2.314-2.373h0.469c0.879,0,1.543,0.596,1.992,1.787l0.088,0.527v0.352c0,1.016-0.693,1.739-2.08,2.168
		h-0.381c-0.527,0-1.104-0.224-1.729-0.674l-4.629,1.875v0.82c0,3.223-1.563,6.084-4.688,8.584c-0.684,0.469-1.201,0.743-1.553,0.82
		c1.289,3.32,1.934,6.377,1.934,9.17v1.348c0,5.703-2.139,11.045-6.416,16.025c-5.117,5.273-11.162,7.91-18.135,7.91h-0.439
		c-5.938,0-11.338-1.934-16.201-5.801v-0.088l28.652-32.227h-0.088C28.036,42.982,17.254,52.455,9.794,58.822H9.706
		C7.89,56.615,6.62,54.428,5.897,52.26c-1.191-2.91-1.787-5.82-1.787-8.73v-1.172c0-6.191,2.461-11.895,7.383-17.109
		c5.098-4.668,10.82-7.002,17.168-7.002h0.674c2.617,0,5.42,0.498,8.408,1.494c0.957-2.344,2.725-4.238,5.303-5.684
		c1.68-0.742,3.496-1.113,5.449-1.113v-0.059l1.113-4.863c-0.84-0.527-1.26-1.25-1.26-2.168c0-1.152,0.645-1.943,1.934-2.373H51.103
		z M8.153,46.605c0,1.797,0.967,2.959,2.9,3.486l0.586,0.088c1.816,0,3.057-1.016,3.721-3.047l0.088-0.908
		c0-1.621-0.918-2.744-2.754-3.369l-0.615-0.059h-0.205c-1.875,0-3.116,1.094-3.721,3.281V46.605z M13.72,32.338
		c0,1.758,0.927,2.959,2.783,3.604L17.323,36c1.66,0,2.852-0.918,3.574-2.754c0.098-0.195,0.146-0.469,0.146-0.82v-0.381
		c0-1.582-0.85-2.676-2.549-3.281c-0.215-0.098-0.538-0.146-0.967-0.146c-1.777,0-2.988,0.967-3.633,2.9L13.72,32.338z
		 M24.999,60.551c0,1.719,0.996,2.891,2.988,3.516h0.82c1.582,0,2.725-0.977,3.428-2.93l0.059-0.586v-0.586
		c0-1.484-0.918-2.559-2.754-3.223l-0.732-0.088c-1.66,0-2.881,0.947-3.662,2.842L24.999,60.551z M28.134,27.27v0.527
		c0,1.543,0.889,2.618,2.666,3.223l0.762,0.059h0.146c1.699,0,2.89-0.947,3.574-2.842l0.146-0.879c0-1.797-0.967-2.988-2.9-3.574
		H31.62c-1.582,0-2.725,0.967-3.428,2.9L28.134,27.27z M38.71,54.574c0,1.602,0.928,2.725,2.783,3.369l0.732,0.059
		c1.797,0,3.037-0.996,3.721-2.988l0.088-0.82c0-1.758-0.918-2.92-2.754-3.486l-0.762-0.088H42.46c-1.621,0-2.793,0.869-3.516,2.607
		C38.788,53.539,38.71,53.988,38.71,54.574z M42.958,39.809c0,1.582,0.898,2.705,2.695,3.369l0.674,0.059h0.381
		c1.641,0,2.803-0.996,3.486-2.988l0.088-0.732v-0.088c0-1.465-0.674-2.53-2.021-3.193c-0.547-0.253-1.045-0.381-1.494-0.381
		c-1.797,0-3.037,1.015-3.721,3.047L42.958,39.809z"/>
</g>
<g id="Layer_2_copy">
	<path d="M51.103,3.48c0.918,0,1.611,0.645,2.08,1.934v0.762c0,0.898-0.615,1.611-1.704,2.159l-1.143,4.863
		c2.358,0.585,4.38,1.728,5.923,3.408c1.27,1.446,2.22,3.079,2.728,5.207l0,0L63,20.172l0.026,0.008
		c0.234-1.582,1.006-2.373,2.314-2.373h0.469c0.879,0,1.543,0.596,1.992,1.787l0.088,0.527v0.352c0,1.016-0.693,1.739-2.08,2.168
		h-0.381c-0.527,0-1.104-0.224-1.517-0.435l-4.629,1.875l-0.047,0.127c0,3.223-1.728,6.538-4.853,9.038
		c-0.684,0.469-1.201,0.743-1.553,0.82c1.289,3.32,1.934,6.377,1.934,9.17v1.348c0,5.703-2.139,11.045-6.416,16.025
		c-5.117,5.273-11.162,7.91-18.135,7.91h-0.439c-5.938,0-11.338-1.934-16.201-5.801v-0.088c0,0,8.802-0.631,15.177-3.381
		c6.97-3.007,9.688-5.501,11.878-11.309c3.006-7.974,1.598-17.537,1.598-17.537h-0.088c-1.638,9.721-1.868,12.17-3.994,16.491
		c-2.281,4.637-7.519,8.104-12.269,9.479c-4.449,1.288-9.5,2.25-16.081,2.447H9.706C7.89,56.615,6.62,54.428,5.897,52.26
		c-1.191-2.91-1.787-5.82-1.787-8.73v-1.172c0-6.191,2.461-11.895,7.383-17.109c5.098-4.668,10.82-7.002,17.168-7.002h0.674
		c2.617,0,5.42,0.498,8.408,1.494c0.957-2.344,2.725-4.238,5.303-5.684c1.68-0.742,3.25-1.151,5.203-1.151l0,0l1.113-4.863
		c-0.594-0.548-1.014-1.271-1.014-2.189c0-1.152,0.645-1.943,1.934-2.373H51.103z M10.604,40.771c0,1.758,0.927,2.959,2.783,3.604
		l0.82,0.059c1.66,0,2.852-0.918,3.574-2.754c0.098-0.195,0.146-0.469,0.146-0.82v-0.381c0-1.582-0.85-2.676-2.549-3.281
		c-0.215-0.098-0.538-0.146-0.967-0.146c-1.777,0-2.988,0.967-3.633,2.9L10.604,40.771z M46.789,42.176c0,0.948,0.5,1.596,1.5,1.943
		l0.443,0.031c0.895,0,1.537-0.495,1.927-1.485c0.053-0.104,0.079-0.252,0.079-0.441v-0.206c0-0.853-0.458-1.442-1.375-1.769
		c-0.115-0.053-0.289-0.079-0.521-0.079c-0.958,0-1.611,0.521-1.959,1.563L46.789,42.176z M43.834,53.817
		c0,0.948,0.5,1.596,1.5,1.943l0.443,0.031c0.895,0,1.537-0.495,1.927-1.485c0.053-0.104,0.079-0.252,0.079-0.441v-0.206
		c0-0.853-0.458-1.442-1.375-1.769c-0.115-0.053-0.289-0.079-0.521-0.079c-0.958,0-1.611,0.521-1.959,1.563L43.834,53.817z
		 M33.25,62.363c0,0.948,0.5,1.596,1.5,1.943l0.443,0.031c0.895,0,1.537-0.495,1.927-1.485c0.053-0.104,0.079-0.252,0.079-0.441
		v-0.206c0-0.853-0.458-1.442-1.375-1.769c-0.115-0.053-0.289-0.079-0.521-0.079c-0.958,0-1.611,0.521-1.959,1.563L33.25,62.363z
		 M24.176,43.552c0,0.948,0.5,1.596,1.5,1.943l0.443,0.031c0.895,0,1.537-0.495,1.927-1.485c0.053-0.104,0.079-0.252,0.079-0.441
		v-0.206c0-0.853-0.458-1.442-1.375-1.769c-0.115-0.053-0.289-0.079-0.521-0.079c-0.958,0-1.611,0.521-1.959,1.563L24.176,43.552z
		 M21.966,30.849v0.527c0,1.543,0.889,2.618,2.666,3.223l0.762,0.059h0.146c1.699,0,2.89-0.947,3.574-2.842l0.146-0.879
		c0-1.797-0.967-2.988-2.9-3.574h-0.908c-1.582,0-2.725,0.967-3.428,2.9L21.966,30.849z"/>
</g>
</svg>
